<?xml version="1.0" standalone="no"?>
<!DOCTYPE svg PUBLIC "-//W3C//DTD SVG 20010904//EN" "http://www.w3.org/TR/2001/REC-SVG-20010904/DTD/svg10.dtd">
<svg version="1.0" xmlns="http://www.w3.org/2000/svg" width="1077.000000pt" height="389.000000pt" viewBox="0 0 1077.000000 389.000000" preserveAspectRatio="xMidYMid meet">
<g transform="translate(0.000000,389.000000) scale(0.100000,-0.100000)" fill="#1440FF" stroke="none">
<path d="M3475 3883 c-193 -23 -366 -73 -526 -153 -265 -133 -425 -282 -654
-609 -83 -118 -154 -220 -158 -228 -7 -11 640 -13 3956 -13 l3964 0 334 477
c184 262 342 489 352 505 l19 28 -3629 -1 c-1995 -1 -3641 -4 -3658 -6z"/>
<path d="M2381 2519 c-393 -46 -782 -268 -1019 -582 -39 -50 -360 -507 -716
-1014 l-645 -923 619 0 619 0 453 648 c249 356 479 675 512 710 42 43 82 74
131 98 129 63 136 64 888 64 743 0 730 1 761 -59 21 -40 20 -69 -3 -108 -11
-17 -224 -323 -473 -680 -250 -356 -458 -654 -462 -660 -6 -10 119 -13 611
-13 l618 1 619 885 c407 583 628 907 644 947 34 83 42 236 17 323 -38 131
-119 236 -238 308 -116 69 -48 66 -1529 65 -733 -1 -1366 -5 -1407 -10z"/>
<path d="M6995 2515 c-315 -43 -618 -199 -829 -426 -50 -55 -309 -415 -773
-1077 -384 -547 -699 -999 -701 -1004 -2 -4 275 -8 615 -7 l618 0 475 680
c282 404 494 699 523 726 52 49 124 84 205 102 37 8 339 11 1015 12 l962 0
352 505 352 504 -1362 -1 c-1031 -1 -1384 -4 -1452 -14z"/>
</g>
</svg>