<svg width="16" height="16" viewBox="0 0 16 16" fill="none" xmlns="http://www.w3.org/2000/svg">
<g clip-path="url(#clip0_296_5856)">
<path d="M16 8C16 3.58172 12.4183 0 8 0C3.58172 0 0 3.58172 0 8C0 12.4183 3.58172 16 8 16C12.4183 16 16 12.4183 16 8Z" fill="#FFA814"/>
<path d="M7.96605 7.60352C8.45036 7.60352 8.73376 8.14851 8.45625 8.54503L8.28127 8.79543L7.02984 10.583H5.57574L6.68812 8.99457C6.74704 8.91032 6.68694 8.79543 6.58442 8.79543H5.02957C4.82689 8.79543 4.63718 8.89441 4.52111 9.05997L3.45469 10.583H2L3.25201 8.79543L3.37161 8.62457L3.55249 8.36592C3.88715 7.88809 4.43391 7.60352 5.0172 7.60352H7.96605Z" fill="white"/>
<path d="M13.5528 7.60352L12.7185 8.79543H10.4867C10.3229 8.79543 10.1691 8.87556 10.0754 9.0093L8.97363 10.583H7.51953L8.77154 8.79543L8.89114 8.62457L9.11209 8.30877C9.422 7.86688 9.92751 7.60352 10.4673 7.60352H13.5528Z" fill="white"/>
<path d="M14.6779 6L13.8436 7.19191H4.50391L4.80439 6.7624C5.13963 6.28457 5.6858 6 6.26909 6H14.6779Z" fill="white"/>
</g>
<defs>
<clipPath id="clip0_296_5856">
<rect width="16" height="16" fill="white"/>
</clipPath>
</defs>
</svg>